<svg xmlns="http://www.w3.org/2000/svg" width="76" height="28" fill="none" viewBox="0 0 76 28">
    <path fill="#474747" d="M74.017 21.502a1.404 1.404 0 0 1-.337-.29l-1.326-1.485-.084.185c.662.739 1.309 1.759 1.365 1.895a1.277 1.277 0 0 0-.272.513c-.11.044-.22.08-.331.086a386.14 386.14 0 0 1-7.417.354.493.493 0 0 1-.173-.03 1.669 1.669 0 0 0-.406-.633 1.74 1.74 0 0 0-1.414-.482.54.54 0 0 1-.172-.212c-1.947-4.94-3.871-9.89-5.798-14.84.112-.059.38-.28.475-.373.246.24 12.406 12.023 14.143 13.72l.084-.186c-.634-.59-12.638-12.581-14.031-13.667a.506.506 0 0 1-.086-.091 1.344 1.344 0 0 0-.266-1.568 1.42 1.42 0 0 0-1.977 0 1.365 1.365 0 0 0-.234.306c-.014-.001-.03-.003-.045-.007A1780.28 1780.28 0 0 1 43.85 1.155a.8.8 0 0 1-.142-.062.852.852 0 0 0-.227-.84.898.898 0 0 0-1.248 0 .861.861 0 0 0-.227.38 3.312 3.312 0 0 1-.146.142c-2.809.293-5.718.439-8.63.552a.183.183 0 0 1-.027-.003 1.32 1.32 0 0 0-.395-.83 1.385 1.385 0 0 0-1.928 0c-.316.31-.443.733-.384 1.135a2.565 2.565 0 0 1-.172.036c-2.72.497-5.438 1.003-8.16 1.481-.11.019-.23.02-.35.009a1.005 1.005 0 0 0-.193-.262 1.075 1.075 0 0 0-1.495 0c-.3.293-.38.72-.244 1.086a1.64 1.64 0 0 1-.297.288 1099.55 1099.55 0 0 1-9.38 6.768 1.516 1.516 0 0 0-2.028.075 1.437 1.437 0 0 0 .007 2.072c-.004.015-.009.031-.018.047-.645 1.206-1.319 2.399-1.987 3.593a1.133 1.133 0 0 0-1.48.082 1.074 1.074 0 0 0 0 1.542c.126.124.274.21.431.262a.637.637 0 0 1-.052.14A4933.256 4933.256 0 0 1 0 27.998h.247c1.665-3.044 3.336-6.083 5.092-9.076.031-.051.06-.103.09-.155.305.016.613-.09.846-.316a1.074 1.074 0 0 0 .09-1.444C6.98 15.79 7.59 14.55 8.41 13.367c.057.036.116.068.176.096-.14.83-.263 1.583-.396 2.334-.678 3.82-1.363 7.637-2.035 11.459a.972.972 0 0 1-.166.433c-.292.013-.58.116-.817.312h1.75a1.341 1.341 0 0 0-.52-.268 1.11 1.11 0 0 1-.027-.392c.798-4.576 1.612-9.148 2.427-13.72l.018-.068a1.513 1.513 0 0 0 1.47-.372c.127-.125.226-.267.298-.42 3.682 1.245 7.363 2.49 11.043 3.74.115.038.214.09.296.15-.044.3.005.61.15.886a.94.94 0 0 1-.123.15c-1.062.739-2.198 1.529-3.33 2.32-3.757 2.623-7.51 5.252-11.28 7.859a.911.911 0 0 1-.423.134h.649c4.76-3.344 9.531-6.672 14.303-10.002.125-.086.242-.168.369-.215a1.517 1.517 0 0 0 2.217.114c.086.047.173.106.264.168 2.78 1.87 5.566 3.73 8.35 5.595 2.16 1.446 4.32 2.892 6.477 4.338h.39c-2.012-1.34-4.017-2.677-6.016-4.017-3.002-2.013-5.99-4.046-9.008-6.037a2.106 2.106 0 0 1-.3-.233c.241-.33.326-.736.253-1.118l18.657-5.112.096.037a1.366 1.366 0 0 0 .856.937c.072.411-.047.87-.093 1.305-.497 4.745-1.037 9.487-1.475 14.238h.183c.012-.125.027-.253.042-.384.557-5.024 1.075-10.053 1.607-15.082 0-.003 0-.005.002-.008a1.415 1.415 0 0 0 1.33-.505c.308.102.605.308.919.503 5.077 3.191 10.177 6.351 15.258 9.538.076.048.148.112.216.186a1.656 1.656 0 0 0-.36 1.224l-.055.017c-4.505 1.501-9.01 3.006-13.515 4.51h.695l12.916-4.308c.072.29.222.565.453.791.257.252.576.407.91.466l-.472 3.05h.232c.158-1.008.314-2.017.473-3.025.382.016.767-.09 1.09-.322.704 1.115 1.404 2.231 2.106 3.348h.264c-.732-1.169-1.46-2.335-2.188-3.495l.022-.02c.404-.396.563-.937.482-1.45.184-.048.394-.07.627-.075 2.277-.062 4.552-.205 6.828-.323.13-.007.24.009.343.038.004.33.133.657.39.909.25.243.57.368.895.381.047.333-.003.684-.004 1.026-.005 1.003-.01 2.006-.018 3.009h.208l.017-2.337c.002-.142.022-.283.034-.426l.103-.021.393 2.784h.233c-.186-1.337-.375-2.674-.558-4.01a.354.354 0 0 1 0-.07c.217-.057.425-.17.595-.336a1.29 1.29 0 0 0 0-1.853 1.37 1.37 0 0 0-1.59-.225zM34.032 1.537c2.568-.126 5.137-.313 7.708-.34.101 0 .203.004.306.007.042.099.104.19.187.272a.898.898 0 0 0 1.317-.078c.45.092.898.208 1.333.33 3.15.89 6.276 1.852 9.41 2.79.132.038.258.091.386.137l-.037.107c-7.01-1.019-14.02-2.038-21.03-3.055-.005-.033-.01-.066-.012-.1.144-.022.288-.062.432-.07zm-21.58 8.156c2.44-1.759 4.885-3.511 7.329-5.265.085-.062.167-.125.25-.178a1.075 1.075 0 0 0 1.589.108c.252-.248.35-.59.292-.913.116-.036.246-.053.381-.077 2.479-.45 4.955-.908 7.434-1.363.165-.03.33-.047.496-.072.016.04.03.08.047.12L10.673 11.17l-.074-.102c.618-.458 1.23-.924 1.854-1.374zm11.435 5.788a1.512 1.512 0 0 0-1.54.348c-.155.153-.269.332-.342.522-.252-.005-.517-.122-.789-.214-3.514-1.2-7.035-2.384-10.546-3.59a1.435 1.435 0 0 0-.104-1.062c6.654-3.112 13.316-6.21 19.976-9.309.041-.018.084-.037.13-.054.058.093.126.182.208.264.037.036.075.07.115.1-.05.118-.096.218-.149.315-2.272 4.148-4.55 8.291-6.819 12.442-.047.084-.091.165-.14.238zm19.691-4.286c-.134.093-.33.135-.507.184-6.028 1.652-12.054 3.31-18.085 4.948a.821.821 0 0 1-.184.027 1.442 1.442 0 0 0-.342-.525 1.489 1.489 0 0 0-.356-.258c.035-.074.076-.148.117-.221 2.333-4.252 4.662-8.506 6.977-12.735a1.39 1.39 0 0 0 1.52-.148c1.002.3 1.719 1.154 2.542 1.726 2.729 1.897 5.383 3.897 8.05 5.875.171.127.313.35.383.567-.08.177-.117.368-.115.56zm2.329-1.035a1.419 1.419 0 0 0-1.82-.04 1.452 1.452 0 0 1-.601-.235c-3.52-2.464-6.97-5.023-10.445-7.55a2.129 2.129 0 0 1-.112-.091c.09-.117.159-.243.204-.377l22.473 3.26c-.035.199-.026.405.028.6a.768.768 0 0 1-.077.04c-3.097 1.475-6.198 2.944-9.297 4.416-.022.01-.047.039-.063.035a2.096 2.096 0 0 0-.29-.058zm16.778 11.863a.52.52 0 0 1-.164-.066c-3.545-2.206-7.077-4.429-10.616-6.646-1.809-1.134-3.624-2.26-5.436-3.39a6.083 6.083 0 0 0-.243-.14 1.341 1.341 0 0 0-.037-1.277.469.469 0 0 1 .12-.088c3.137-1.492 6.273-2.98 9.413-4.461.066.136.156.264.272.378.392.383.956.49 1.446.324a5881.64 5881.64 0 0 1 5.775 14.851c.023.06.03.127.03.194-.2.07-.39.177-.56.321z"/>
</svg>
